<svg xmlns="http://www.w3.org/2000/svg" xmlns:xlink="http://www.w3.org/1999/xlink" width="500" zoomAndPan="magnify" viewBox="0 0 375 374.999991" height="500" preserveAspectRatio="xMidYMid meet" version="1.0"><defs><clipPath id="41a7a00f8f"><path d="M 1 0 L 175 0 L 175 369.75 L 1 369.75 Z M 1 0 " clip-rule="nonzero"/></clipPath><clipPath id="45a6c85ed3"><path d="M 190 0 L 364 0 L 364 369.75 L 190 369.75 Z M 190 0 " clip-rule="nonzero"/></clipPath></defs><g clip-path="url(#41a7a00f8f)"><path fill="#ff914d" d="M 174.746094 44.9375 C 174.746094 13.179688 144.480469 0 128.28125 0 C 118.550781 0 99.226562 6.5625 88.648438 20.648438 C 83.457031 27.5625 81.121094 35.433594 81.734375 43.75 C 72.089844 42.34375 56.421875 42.003906 46.882812 57.324219 C 40.015625 68.355469 39.308594 77.445312 40.046875 83.371094 C 30.039062 84.597656 12.183594 89.5 5.292969 108.597656 C 0.109375 122.941406 1.015625 137.742188 5.414062 149.527344 C 5.421875 149.554688 5.421875 149.582031 5.425781 149.609375 C 6.410156 152.921875 8.171875 156.496094 10.71875 159.976562 C 10.75 160.023438 10.785156 160.070312 10.820312 160.117188 C 11 160.363281 11.175781 160.609375 11.363281 160.855469 C 12.40625 162.304688 13.5 163.675781 14.664062 164.898438 C 10.125 168.589844 7.511719 173.925781 6.90625 183.714844 C 6.21875 194.710938 10.992188 207.980469 19.3125 214.804688 C 13.636719 220.601562 8.636719 229.324219 9.867188 247.664062 C 10.992188 258.964844 17.324219 270.429688 26.382812 277.589844 C 31.148438 281.355469 36.449219 283.644531 41.816406 284.484375 C 42.164062 284.597656 42.53125 284.679688 42.910156 284.714844 C 43.035156 284.730469 43.1875 284.726562 43.3125 284.734375 C 43.46875 284.753906 43.621094 284.800781 43.777344 284.8125 C 44.6875 290.113281 47.621094 296.039062 51.050781 300.484375 C 56.671875 307.769531 63.882812 311.984375 71.722656 312.671875 C 74.023438 321.667969 79.1875 335.164062 94.386719 336.996094 C 95.570312 345.523438 98.515625 352.601562 103.25 358.09375 C 109.15625 364.949219 117.558594 368.9375 127.550781 369.625 C 128.558594 369.691406 129.570312 369.726562 130.585938 369.726562 C 142.535156 369.726562 154.878906 364.976562 163.414062 356.957031 C 170.769531 350.042969 174.789062 341.140625 174.726562 331.914062 L 174.726562 134.304688 C 174.726562 134.300781 174.726562 134.296875 174.726562 134.296875 L 174.726562 45.453125 C 174.730469 45.277344 174.746094 45.113281 174.746094 44.9375 Z M 164.070312 121.390625 C 159.664062 118.820312 154.300781 116.90625 148.746094 116.164062 C 133.738281 114.160156 120.964844 121.007812 113.582031 135.128906 C 105.132812 152.925781 111.8125 166.335938 116.546875 172.746094 C 122.6875 181.0625 132.050781 186.601562 139.589844 186.601562 C 140.285156 186.601562 140.960938 186.554688 141.621094 186.460938 C 144.535156 186.035156 146.550781 183.332031 146.128906 180.417969 C 145.703125 177.507812 142.992188 175.472656 140.085938 175.914062 C 137.53125 176.285156 130.304688 173.4375 125.121094 166.417969 C 121.070312 160.929688 117.449219 151.839844 123.117188 139.886719 C 129.542969 127.609375 139.359375 125.890625 146.457031 126.625 C 156.40625 127.640625 163.167969 133.25 164.070312 135.296875 L 164.070312 331.949219 C 164.125 339.972656 159.777344 345.75 156.117188 349.191406 C 148.949219 355.925781 138.277344 359.664062 128.285156 358.992188 C 123.339844 358.652344 116.386719 357.011719 111.324219 351.140625 C 105.957031 344.910156 103.660156 334.917969 104.652344 322.496094 C 105.378906 316.800781 112.488281 305.496094 121.988281 300.746094 C 127.441406 298.019531 132.648438 298.027344 137.460938 300.761719 C 140.019531 302.222656 143.273438 301.320312 144.726562 298.761719 C 146.179688 296.207031 145.285156 292.953125 142.726562 291.5 C 134.742188 286.957031 125.925781 286.859375 117.21875 291.214844 C 117.03125 291.308594 116.859375 291.441406 116.671875 291.542969 C 114.375 289.1875 110.925781 287.574219 106.597656 287.078125 C 99.308594 286.25 91.273438 288.714844 89.960938 295.046875 C 89.363281 297.929688 91.214844 300.75 94.097656 301.347656 C 96.625 301.875 99.109375 300.503906 100.082031 298.21875 C 101.105469 297.75 103.726562 297.285156 106.386719 297.828125 C 106.851562 297.921875 107.242188 298.03125 107.574219 298.148438 C 100.15625 305.140625 94.9375 314.425781 94.054688 321.394531 C 93.925781 322.988281 93.875 324.515625 93.835938 326.035156 C 85.816406 323.980469 83.277344 315.835938 81.15625 306.207031 L 80.144531 301.621094 L 75.472656 302.042969 C 68.683594 302.667969 63.671875 298.785156 60.691406 295.425781 C 57.296875 291.597656 55.398438 287.285156 54.589844 284.347656 C 69.582031 282.140625 88.070312 272.8125 92.949219 247.355469 C 94.609375 246.757812 96.273438 246.039062 97.941406 245.03125 C 98.03125 244.976562 98.097656 244.90625 98.183594 244.847656 C 104.277344 241.441406 110.65625 235.921875 114.9375 228.84375 C 119.9375 220.582031 121.257812 211.699219 118.753906 203.164062 C 117.921875 200.335938 114.964844 198.71875 112.140625 199.546875 C 109.320312 200.375 107.699219 203.335938 108.527344 206.160156 C 110.1875 211.832031 109.277344 217.609375 105.816406 223.324219 C 102.359375 229.046875 96.820312 233.675781 91.953125 236.144531 C 91.828125 236.214844 91.703125 236.265625 91.578125 236.332031 C 90.011719 237.09375 88.515625 237.640625 87.199219 237.90625 C 75.804688 240.070312 64.402344 229.167969 64.269531 229.042969 C 62.171875 226.992188 58.808594 227.019531 56.742188 229.117188 C 54.679688 231.214844 54.710938 234.589844 56.808594 236.652344 C 57.425781 237.257812 68.207031 247.652344 81.660156 248.832031 C 77.300781 264.726562 66.015625 270.75 56.90625 272.96875 L 48.417969 274.113281 C 47.894531 274.183594 47.386719 274.1875 46.878906 274.210938 C 45.671875 274.21875 44.792969 274.171875 44.320312 274.140625 C 44.269531 274.132812 44.214844 274.132812 44.164062 274.128906 C 44.082031 274.121094 44.011719 274.113281 43.96875 274.109375 C 43.957031 274.109375 43.945312 274.113281 43.929688 274.109375 C 39.398438 273.53125 35.601562 271.292969 32.992188 269.230469 C 26.222656 263.878906 21.308594 255 20.488281 246.78125 C 19.253906 228.382812 25.152344 223.476562 31.402344 218.277344 L 40.175781 210.957031 L 29.777344 208.523438 C 23.070312 206.949219 16.894531 194.765625 17.542969 184.375 C 18.078125 175.753906 20.023438 173.476562 23.722656 171.589844 C 29.238281 174.84375 35.984375 177.351562 44.117188 178.472656 C 45.996094 178.730469 47.820312 178.847656 49.597656 178.847656 C 55.722656 178.847656 61.214844 177.398438 66.019531 175.304688 C 68.457031 176.757812 73.507812 181.054688 73.207031 186.90625 C 72.753906 195.75 66.554688 202.460938 66.398438 202.621094 C 64.371094 204.742188 64.4375 208.105469 66.550781 210.144531 C 67.585938 211.136719 68.917969 211.632812 70.25 211.632812 C 71.644531 211.632812 73.039062 211.089844 74.085938 210.003906 C 74.457031 209.617188 83.183594 200.425781 83.847656 187.453125 C 84.230469 179.992188 80.425781 173.753906 75.90625 169.550781 C 82.785156 164.457031 86.789062 159.082031 87.121094 158.625 C 88.851562 156.242188 88.320312 152.910156 85.941406 151.179688 C 83.558594 149.449219 80.226562 149.980469 78.496094 152.363281 C 78.410156 152.480469 72.671875 160.199219 63.296875 164.804688 C 63.296875 164.808594 63.296875 164.808594 63.292969 164.808594 C 63.292969 164.808594 63.289062 164.808594 63.289062 164.8125 C 58.308594 167.257812 52.320312 168.84375 45.566406 167.910156 C 40.152344 167.167969 35.609375 165.679688 31.792969 163.804688 L 28.050781 161.71875 C 24.359375 159.347656 21.566406 156.609375 19.546875 153.941406 C 13.203125 144.515625 9.488281 128.332031 15.316406 112.214844 C 21.148438 96.042969 38.636719 93.921875 44.605469 93.667969 L 60.371094 109.945312 C 56.957031 111.921875 52.878906 113.121094 48.023438 113.34375 C 45.082031 113.480469 42.808594 115.972656 42.945312 118.914062 C 43.078125 121.769531 45.433594 123.996094 48.265625 123.996094 C 48.347656 123.996094 48.429688 123.996094 48.511719 123.992188 C 58.921875 123.511719 67.234375 119.894531 73.210938 113.238281 C 83.636719 101.636719 82.746094 85.070312 82.703125 84.371094 C 82.523438 81.433594 80.007812 79.214844 77.058594 79.378906 C 74.121094 79.558594 71.886719 82.085938 72.066406 85.023438 C 72.070312 85.132812 72.476562 94.574219 67.929688 102.425781 L 51.347656 85.308594 C 50.554688 83.242188 48.332031 75.15625 55.925781 62.953125 C 62.730469 52.023438 74.113281 53.109375 84.246094 54.984375 C 84.886719 55.101562 85.480469 55.210938 86.03125 55.304688 L 99.035156 66.476562 C 100.042969 67.339844 101.277344 67.765625 102.507812 67.765625 C 104.003906 67.765625 105.496094 67.132812 106.550781 65.90625 C 108.46875 63.675781 108.214844 60.3125 105.980469 58.394531 L 93.085938 47.316406 C 91.316406 39.875 92.660156 33.058594 97.171875 27.046875 C 105.367188 16.136719 121.53125 10.65625 128.28125 10.65625 C 137.828125 10.65625 164.011719 18.761719 164.082031 44.835938 C 164.082031 44.867188 164.074219 44.894531 164.074219 44.925781 L 164.074219 45.320312 C 163.902344 68.710938 148.710938 74.242188 146.863281 74.808594 C 144.492188 74.679688 142.453125 76.183594 141.695312 78.453125 C 140.765625 81.242188 142.273438 84.261719 145.066406 85.195312 C 149.835938 86.777344 157.671875 81.296875 158.550781 80.667969 C 160.183594 79.488281 162.121094 77.847656 164.074219 75.695312 L 164.074219 121.390625 Z M 164.070312 121.390625 " fill-opacity="1" fill-rule="nonzero"/></g><g clip-path="url(#45a6c85ed3)"><path fill="#ff914d" d="M 359.984375 183.808594 L 359.957031 183.445312 C 358.875 173.957031 355.277344 168.476562 350.925781 164.9375 C 362.097656 153.246094 368.207031 130.375 360.339844 108.597656 C 353.449219 89.5 335.59375 84.597656 325.582031 83.371094 C 326.324219 77.441406 325.613281 68.355469 318.75 57.324219 C 309.246094 42.054688 293.644531 42.34375 284 43.734375 C 284.882812 34.667969 282.574219 26.253906 277.175781 19.0625 C 267.339844 5.964844 249.636719 0 237.351562 0 C 221.152344 0 190.886719 13.179688 190.886719 44.9375 C 190.886719 45.09375 190.902344 45.238281 190.902344 45.394531 L 190.902344 331.878906 C 190.84375 341.140625 194.859375 350.046875 202.21875 356.957031 C 210.757812 364.976562 223.097656 369.726562 235.042969 369.726562 C 236.058594 369.726562 237.070312 369.691406 238.074219 369.621094 C 256.351562 368.371094 268.46875 356.28125 271.226562 336.996094 C 286.375 335.179688 291.566406 321.78125 293.878906 312.785156 C 301.609375 312.484375 308.460938 309.605469 313.5 304.46875 C 318.59375 299.28125 321.597656 291.957031 321.960938 284.179688 C 342.070312 281.28125 354.078125 269.472656 355.96875 250.519531 C 357.390625 236.125 353.949219 224.117188 345.730469 214.726562 C 353.679688 209.167969 360.71875 200.320312 359.984375 183.808594 Z M 211.117188 339.003906 C 208.402344 339.003906 206.199219 336.800781 206.199219 334.085938 C 206.199219 331.375 208.402344 329.171875 211.117188 329.171875 C 213.828125 329.171875 216.03125 331.375 216.03125 334.085938 C 216.03125 336.800781 213.828125 339.003906 211.117188 339.003906 Z M 208.78125 343.351562 L 208.78125 348.453125 C 206.351562 346.011719 203.796875 342.582031 202.476562 338.164062 C 203.691406 340.722656 205.988281 342.644531 208.78125 343.351562 Z M 334.601562 208.984375 L 327.511719 212.679688 L 333.652344 217.804688 C 339.539062 222.710938 347.160156 231.335938 345.363281 249.464844 C 343.832031 264.820312 334.273438 272.871094 316.144531 274.074219 L 310.597656 274.445312 L 311.199219 279.972656 C 311.917969 286.523438 309.933594 292.886719 305.890625 297.007812 C 302.898438 300.058594 298.898438 301.78125 294.160156 302.089844 L 292.484375 246.492188 L 307.953125 232.445312 C 309.925781 233.785156 312.308594 234.574219 314.871094 234.574219 C 321.671875 234.574219 327.207031 229.039062 327.207031 222.238281 C 327.207031 215.433594 321.671875 209.902344 314.871094 209.902344 C 308.066406 209.902344 302.535156 215.433594 302.535156 222.238281 C 302.535156 224.792969 303.316406 227.167969 304.648438 229.136719 L 287.753906 244.480469 L 289.492188 301.984375 L 285.484375 301.621094 L 284.472656 306.207031 C 282.132812 316.847656 279.257812 325.679688 269.078125 326.484375 L 269.078125 278.378906 L 262.328125 272.042969 L 262.328125 247.609375 L 277.152344 232.988281 C 278.710938 234.082031 280.59375 234.734375 282.636719 234.734375 C 287.917969 234.734375 292.222656 230.429688 292.222656 225.148438 C 292.222656 219.863281 287.917969 215.5625 282.636719 215.5625 C 277.351562 215.5625 273.050781 219.863281 273.050781 225.148438 C 273.050781 226.695312 273.453125 228.140625 274.109375 229.4375 L 257.65625 245.660156 L 257.65625 267.664062 L 248.824219 259.378906 L 248.824219 226.019531 C 252.980469 224.96875 256.074219 221.230469 256.074219 216.757812 C 256.074219 211.472656 251.773438 207.171875 246.492188 207.171875 C 241.207031 207.171875 236.90625 211.472656 236.90625 216.757812 C 236.90625 221.230469 240.003906 224.96875 244.15625 226.019531 L 244.15625 261.398438 L 264.410156 280.398438 L 264.410156 326.898438 C 263.921875 327.09375 263.476562 327.371094 263.070312 327.703125 C 262.992188 327.769531 262.90625 327.820312 262.832031 327.886719 C 262.8125 327.90625 262.796875 327.925781 262.777344 327.945312 C 262.042969 328.628906 261.507812 329.519531 261.25 330.53125 C 261.222656 330.644531 261.21875 330.761719 261.195312 330.875 C 261.15625 331.097656 261.105469 331.316406 261.089844 331.546875 C 260.382812 343.445312 255.890625 351.785156 248.207031 355.976562 L 238.828125 347.316406 L 238.828125 324.351562 C 242.980469 323.300781 246.078125 319.5625 246.078125 315.085938 C 246.078125 309.804688 241.777344 305.503906 236.492188 305.503906 C 231.207031 305.503906 226.90625 309.804688 226.90625 315.085938 C 226.90625 319.5625 230.003906 323.300781 234.15625 324.351562 L 234.15625 349.363281 L 243.433594 357.921875 C 241.535156 358.46875 239.515625 358.84375 237.339844 358.992188 C 229.050781 359.546875 220.296875 357.027344 213.449219 352.300781 L 213.449219 343.351562 C 217.601562 342.300781 220.699219 338.5625 220.699219 334.085938 C 220.699219 328.804688 216.398438 324.503906 211.113281 324.503906 C 206.167969 324.503906 202.132812 328.285156 201.628906 333.101562 C 201.609375 332.703125 201.554688 332.324219 201.558594 331.914062 L 201.558594 286.378906 L 205.804688 290.980469 L 231.894531 290.980469 C 232.988281 295.3125 236.886719 298.542969 241.554688 298.542969 C 247.070312 298.542969 251.558594 294.058594 251.558594 288.542969 C 251.558594 283.03125 247.070312 278.546875 241.554688 278.546875 C 236.886719 278.546875 232.988281 281.777344 231.894531 286.109375 L 207.933594 286.109375 L 201.558594 279.199219 L 201.558594 249.707031 L 210.449219 249.707031 C 211.539062 254.503906 215.820312 258.105469 220.941406 258.105469 C 226.886719 258.105469 231.722656 253.269531 231.722656 247.328125 C 231.722656 241.382812 226.886719 236.546875 220.941406 236.546875 C 215.820312 236.546875 211.539062 240.148438 210.449219 244.949219 L 201.558594 244.949219 L 201.558594 175.042969 C 206.984375 175.003906 212.132812 175 217.535156 174.996094 L 217.535156 198.558594 C 214.488281 199.25 212.203125 201.964844 212.203125 205.21875 C 212.203125 208.992188 215.269531 212.058594 219.046875 212.058594 C 222.816406 212.058594 225.882812 208.992188 225.882812 205.21875 C 225.882812 201.964844 223.597656 199.25 220.554688 198.558594 L 220.554688 176.023438 C 226.046875 181.550781 231.390625 187.078125 236.757812 192.640625 L 238.835938 194.792969 L 241.007812 192.695312 L 238.933594 190.542969 C 235.925781 187.421875 232.921875 184.316406 229.898438 181.214844 L 253.449219 181.214844 C 254.140625 184.257812 256.855469 186.542969 260.109375 186.542969 C 263.882812 186.542969 266.949219 183.476562 266.949219 179.703125 C 266.949219 175.929688 263.882812 172.859375 260.109375 172.859375 C 256.855469 172.859375 254.140625 175.144531 253.449219 178.191406 L 226.921875 178.191406 C 225.035156 176.265625 223.15625 174.339844 221.234375 172.417969 L 220.789062 171.976562 L 220.167969 171.976562 C 213.757812 171.976562 207.863281 171.976562 201.558594 172.019531 L 201.558594 164.605469 C 218.933594 164.460938 236.347656 164.511719 253.445312 164.761719 C 254.128906 167.816406 256.851562 170.113281 260.109375 170.113281 C 263.882812 170.113281 266.953125 167.042969 266.953125 163.269531 C 266.953125 159.496094 263.886719 156.429688 260.109375 156.429688 C 256.863281 156.429688 254.152344 158.703125 253.457031 161.742188 C 236.351562 161.492188 218.929688 161.449219 201.558594 161.585938 L 201.558594 148.542969 L 205.898438 153.246094 L 222.089844 153.246094 C 222.769531 155.933594 225.1875 157.9375 228.082031 157.9375 C 231.503906 157.9375 234.285156 155.152344 234.285156 151.734375 C 234.285156 148.3125 231.503906 145.527344 228.082031 145.527344 C 225.1875 145.527344 222.769531 147.535156 222.089844 150.222656 L 207.222656 150.222656 L 201.558594 144.089844 L 201.558594 127.160156 L 209.054688 123.625 L 238.542969 134.578125 L 277.902344 116.011719 C 278.910156 117.304688 280.253906 118.304688 281.839844 118.875 C 282.804688 119.222656 283.808594 119.394531 284.808594 119.394531 C 286.085938 119.394531 287.355469 119.113281 288.542969 118.550781 C 292.917969 116.488281 294.800781 111.25 292.738281 106.875 C 291.738281 104.753906 289.972656 103.148438 287.765625 102.355469 C 285.5625 101.5625 283.175781 101.675781 281.0625 102.679688 C 278.9375 103.679688 277.335938 105.445312 276.542969 107.648438 C 275.972656 109.234375 275.890625 110.90625 276.25 112.507812 L 238.363281 130.378906 L 213.957031 121.308594 L 236.984375 110.449219 L 243.589844 91.742188 L 273.433594 77.667969 C 275.113281 79.804688 277.640625 81.066406 280.304688 81.066406 C 281.558594 81.066406 282.828125 80.796875 284.03125 80.230469 C 288.40625 78.167969 290.285156 72.925781 288.226562 68.550781 L 288.226562 68.546875 C 286.160156 64.171875 280.914062 62.296875 276.546875 64.359375 C 272.773438 66.136719 270.871094 70.277344 271.734375 74.1875 L 240.476562 88.929688 L 233.867188 107.636719 L 201.558594 122.875 L 201.558594 75.695312 C 203.511719 77.847656 205.445312 79.488281 207.078125 80.664062 C 207.957031 81.292969 215.757812 86.792969 220.566406 85.195312 C 223.359375 84.265625 224.867188 81.246094 223.933594 78.457031 C 223.191406 76.222656 221.109375 74.808594 218.882812 74.808594 C 218.84375 74.808594 218.804688 74.808594 218.769531 74.808594 C 216.921875 74.242188 201.710938 68.707031 201.558594 45.277344 L 201.558594 44.925781 C 201.558594 44.898438 201.550781 44.871094 201.550781 44.84375 C 201.609375 21.1875 223.128906 12.34375 234.261719 10.898438 L 230.832031 14.0625 L 230.832031 39.613281 C 226.628906 40.503906 223.460938 44.242188 223.460938 48.707031 C 223.460938 53.839844 227.636719 58.015625 232.769531 58.015625 C 237.898438 58.015625 242.078125 53.839844 242.078125 48.707031 C 242.078125 44.242188 238.910156 40.503906 234.703125 39.613281 L 234.703125 15.761719 L 240.058594 10.820312 C 249.773438 11.617188 261.984375 16.578125 268.652344 25.460938 C 273.332031 31.6875 274.605469 39.066406 272.539062 47.382812 L 266.355469 53.390625 C 264.246094 55.441406 264.199219 58.816406 266.253906 60.925781 C 267.296875 62 268.683594 62.539062 270.070312 62.539062 C 271.410156 62.539062 272.75 62.039062 273.789062 61.035156 L 279.699219 55.289062 C 280.222656 55.199219 280.777344 55.097656 281.382812 54.988281 C 291.519531 53.113281 302.898438 52.03125 309.703125 62.957031 C 317.078125 74.808594 315.195312 82.757812 314.386719 85.042969 L 308.90625 89.675781 C 306.65625 91.574219 306.371094 94.9375 308.273438 97.1875 C 309.328125 98.433594 310.832031 99.074219 312.347656 99.074219 C 313.5625 99.074219 314.78125 98.664062 315.78125 97.816406 L 320.710938 93.652344 C 326.265625 93.835938 343.597656 95.726562 349.894531 111.257812 L 303.726562 111.257812 L 277.585938 138.179688 L 277.585938 165.402344 C 273 166.441406 269.558594 170.535156 269.558594 175.429688 C 269.558594 181.109375 274.183594 185.730469 279.863281 185.730469 C 285.542969 185.730469 290.167969 181.109375 290.167969 175.429688 C 290.167969 170.535156 286.722656 166.441406 282.140625 165.402344 L 282.140625 140.023438 L 305.648438 115.804688 L 351.441406 115.804688 C 354.710938 127.636719 353.101562 139.203125 349.359375 147.84375 L 312.273438 147.84375 L 297.128906 165.324219 L 297.128906 182.046875 C 292.542969 183.085938 289.101562 187.179688 289.101562 192.074219 C 289.101562 197.75 293.726562 202.375 299.40625 202.375 C 305.085938 202.375 309.707031 197.75 309.707031 192.074219 C 309.707031 187.179688 306.265625 183.085938 301.679688 182.046875 L 301.679688 167.019531 L 314.347656 152.394531 L 347.042969 152.394531 C 344.964844 155.863281 342.546875 158.5625 340.042969 160.246094 L 324.875 160.246094 C 321.933594 160.246094 319.546875 162.632812 319.546875 165.574219 C 319.546875 168.519531 321.933594 170.902344 324.875 170.902344 L 340.402344 170.902344 C 345.539062 173.375 348.394531 176.394531 349.351562 184.46875 C 349.902344 198.1875 344.117188 204.027344 334.601562 208.984375 Z M 307.203125 222.238281 C 307.203125 218.007812 310.640625 214.570312 314.871094 214.570312 C 319.101562 214.570312 322.539062 218.007812 322.539062 222.238281 C 322.539062 226.464844 319.101562 229.902344 314.871094 229.902344 C 310.640625 229.902344 307.203125 226.464844 307.203125 222.238281 Z M 277.71875 225.148438 C 277.71875 222.433594 279.921875 220.230469 282.636719 220.230469 C 285.347656 220.230469 287.550781 222.433594 287.550781 225.148438 C 287.550781 227.859375 285.347656 230.0625 282.636719 230.0625 C 279.921875 230.0625 277.71875 227.859375 277.71875 225.148438 Z M 246.492188 221.671875 C 243.777344 221.671875 241.574219 219.46875 241.574219 216.757812 C 241.574219 214.042969 243.777344 211.839844 246.492188 211.839844 C 249.203125 211.839844 251.40625 214.042969 251.40625 216.757812 C 251.40625 219.46875 249.203125 221.671875 246.492188 221.671875 Z M 236.492188 320.003906 C 233.78125 320.003906 231.578125 317.800781 231.578125 315.085938 C 231.578125 312.375 233.78125 310.171875 236.492188 310.171875 C 239.207031 310.171875 241.410156 312.375 241.410156 315.085938 C 241.410156 317.800781 239.207031 320.003906 236.492188 320.003906 Z M 236.429688 288.546875 C 236.429688 285.71875 238.730469 283.417969 241.558594 283.417969 C 244.386719 283.417969 246.6875 285.71875 246.6875 288.546875 C 246.6875 291.375 244.390625 293.671875 241.558594 293.671875 C 238.730469 293.671875 236.429688 291.375 236.429688 288.546875 Z M 214.925781 247.328125 C 214.925781 244.007812 217.625 241.308594 220.945312 241.308594 C 224.265625 241.308594 226.964844 244.011719 226.964844 247.328125 C 226.964844 250.648438 224.265625 253.347656 220.945312 253.347656 C 217.625 253.347656 214.925781 250.648438 214.925781 247.328125 Z M 219.046875 201.398438 C 221.152344 201.398438 222.867188 203.113281 222.867188 205.222656 C 222.867188 207.328125 221.152344 209.039062 219.046875 209.039062 C 216.941406 209.039062 215.222656 207.328125 215.222656 205.222656 C 215.222656 203.117188 216.941406 201.398438 219.046875 201.398438 Z M 256.289062 179.703125 C 256.289062 177.597656 258.003906 175.882812 260.109375 175.882812 C 262.214844 175.882812 263.933594 177.597656 263.933594 179.703125 C 263.933594 181.808594 262.214844 183.523438 260.109375 183.523438 C 258.003906 183.523438 256.289062 181.808594 256.289062 179.703125 Z M 256.289062 163.269531 C 256.289062 161.164062 258.003906 159.453125 260.109375 159.453125 C 262.214844 159.453125 263.933594 161.164062 263.933594 163.269531 C 263.933594 165.378906 262.214844 167.09375 260.109375 167.09375 C 258.003906 167.09375 256.289062 165.378906 256.289062 163.269531 Z M 224.902344 151.734375 C 224.902344 149.980469 226.332031 148.550781 228.085938 148.550781 C 229.839844 148.550781 231.269531 149.980469 231.269531 151.734375 C 231.269531 153.488281 229.839844 154.917969 228.085938 154.917969 C 226.332031 154.917969 224.902344 153.488281 224.902344 151.734375 Z M 280.191406 108.960938 C 280.632812 107.730469 281.53125 106.742188 282.710938 106.183594 C 283.378906 105.871094 284.085938 105.710938 284.796875 105.710938 C 285.355469 105.710938 285.917969 105.808594 286.460938 106.003906 C 287.691406 106.445312 288.675781 107.339844 289.234375 108.523438 C 290.386719 110.96875 289.335938 113.894531 286.894531 115.046875 C 285.710938 115.601562 284.386719 115.675781 283.144531 115.226562 C 281.914062 114.785156 280.929688 113.886719 280.371094 112.703125 C 279.8125 111.523438 279.746094 110.191406 280.191406 108.960938 Z M 278.195312 67.859375 C 278.867188 67.542969 279.578125 67.394531 280.28125 67.394531 C 282.117188 67.394531 283.886719 68.433594 284.722656 70.199219 C 285.875 72.644531 284.820312 75.574219 282.378906 76.726562 C 279.933594 77.875 277.003906 76.828125 275.855469 74.382812 C 274.703125 71.941406 275.753906 69.015625 278.195312 67.859375 Z M 232.765625 43.277344 C 235.761719 43.277344 238.199219 45.714844 238.199219 48.710938 C 238.199219 51.703125 235.761719 54.140625 232.765625 54.140625 C 229.773438 54.140625 227.335938 51.703125 227.335938 48.710938 C 227.335938 45.714844 229.773438 43.277344 232.765625 43.277344 Z M 279.859375 169.675781 C 283.03125 169.675781 285.613281 172.257812 285.613281 175.429688 C 285.613281 178.601562 283.03125 181.179688 279.859375 181.179688 C 276.691406 181.179688 274.109375 178.601562 274.109375 175.429688 C 274.109375 172.257812 276.691406 169.675781 279.859375 169.675781 Z M 299.402344 186.320312 C 302.574219 186.320312 305.152344 188.902344 305.152344 192.074219 C 305.152344 195.242188 302.574219 197.824219 299.402344 197.824219 C 296.230469 197.824219 293.652344 195.242188 293.652344 192.074219 C 293.652344 188.902344 296.230469 186.320312 299.402344 186.320312 Z M 299.402344 186.320312 " fill-opacity="1" fill-rule="nonzero"/></g></svg>